<?xml version="1.0" encoding="UTF-8"?>
<svg xmlns="http://www.w3.org/2000/svg" width="394" height="127" viewBox="0 0 394 127">
  <g fill="#EAECEF">
    <path d="M 115.822,0 H 2.943 C 1.317,0 0.318,1.263 0.318,2.82 V 124.079 c 0,1.557 0.999,2.82 2.625,2.82 H 115.822 c 1.626,0 2.626,-1.263 2.626,-2.82 V 2.82 C 118.448,1.263 117.448,0 115.822,0 Z M 79.071,81.78 c 0,1.557 -1.176,2.82 -2.625,2.82 H 42.319 c -1.449,0 -2.625,-1.263 -2.625,-2.82 V 45.12 c 0,-1.557 1.176,-2.82 2.625,-2.82 h 34.127 c 1.449,0 2.625,1.263 2.625,2.82 z"/>
    <path d="m 352.131,42.305 h -34.127 c -1.449,0 -2.625,1.263 -2.625,2.82 v 36.66 c 0,1.557 1.176,2.82 2.625,2.82 h 34.127 c 1.45,0 2.625,-1.263 2.625,-2.82 V 45.125 c 0,-1.558 -1.175,-2.82 -2.625,-2.82 z"/>
    <path d="m 312.763,0.002 h -34.126 c -1.45,0 -2.625,1.263 -2.625,2.82 V 39.482 c 0,1.557 1.175,2.82 2.625,2.82 h 34.126 c 1.45,0 2.626,-1.263 2.626,-2.82 V 2.822 c 0,-1.557 -1.176,-2.82 -2.626,-2.82 z"/>
    <path d="m 391.529,0.002 h -34.127 c -1.449,0 -2.625,1.263 -2.625,2.82 V 39.482 c 0,1.557 1.176,2.82 2.625,2.82 h 34.127 c 1.45,0 2.625,-1.263 2.625,-2.82 V 2.822 c 0,-1.557 -1.175,-2.82 -2.625,-2.82 z"/>
    <path d="m 312.763,84.604 h -34.126 c -1.45,0 -2.625,1.263 -2.625,2.82 v 36.66 c 0,1.557 1.175,2.82 2.625,2.82 h 34.126 c 1.45,0 2.626,-1.263 2.626,-2.82 V 87.424 c 0,-1.557 -1.176,-2.82 -2.626,-2.82 z"/>
    <path d="m 391.529,84.604 h -34.127 c -1.449,0 -2.625,1.263 -2.625,2.82 v 36.66 c 0,1.557 1.176,2.82 2.625,2.82 h 34.127 c 1.45,0 2.625,-1.263 2.625,-2.82 V 87.424 c 0,-1.557 -1.175,-2.82 -2.625,-2.82 z"/>
    <path d="m 253.651,0.002 h -34.126 c -1.45,0 -2.626,1.263 -2.626,2.82 V 39.482 c 0,1.557 1.176,2.82 2.626,2.82 h 34.126 c 1.45,0 2.625,-1.263 2.625,-2.82 V 2.822 c 0,-1.557 -1.175,-2.82 -2.625,-2.82 z"/>
    <path d="m 253.651,84.604 h -34.126 c -1.45,0 -2.626,1.263 -2.626,2.82 v 36.66 c 0,1.557 1.176,2.82 2.626,2.82 h 34.126 c 1.45,0 2.625,-1.263 2.625,-2.82 V 87.424 c 0,-1.557 -1.175,-2.82 -2.625,-2.82 z"/>
    <path d="m 216.888,45.088 c 0,-1.557 -1.176,-2.82 -2.625,-2.82 H 177.511 V 2.82 C 177.511,1.263 176.335,0 174.886,0 H 140.76 c -1.626,0 -2.626,1.263 -2.626,2.82 V 124.016 c 0,1.557 1,2.82 2.626,2.82 h 34.126 c 1.449,0 2.625,-1.263 2.625,-2.82 V 84.568 h 36.752 c 1.449,0 2.625,-1.263 2.625,-2.82 z"/>
  </g>
</svg>
